<svg width="306" height="226" viewBox="0 0 306 226" fill="none" xmlns="http://www.w3.org/2000/svg">
<g clip-path="url(#clip0_4_2)">
<path d="M130.446 153.252C130.446 153.252 171.084 148.375 185.307 140.653C199.53 132.931 305.187 129.273 305.187 153.252C305.187 177.23 183.681 187.797 183.681 187.797L119.88 184.139L130.446 153.252Z" fill="#FBBEBE"/>
<path opacity="0.1" d="M130.446 153.252C130.446 153.252 171.084 148.375 185.307 140.653C199.53 132.931 305.187 129.273 305.187 153.252C305.187 177.23 183.681 187.797 183.681 187.797L119.88 184.139L130.446 153.252Z" fill="black"/>
<path d="M142.231 148.781L133.697 173.572L0 175.198V138.621C0 138.621 51.2032 126.835 91.8406 152.033C91.8406 152.033 139.793 146.343 142.231 148.781Z" fill="#5CB85C"/>
<path opacity="0.1" d="M142.231 148.741L133.697 173.533L0 175.158V138.581C0 138.581 51.2032 126.795 91.8406 151.993C91.8406 151.993 139.793 146.303 142.231 148.741Z" fill="black"/>
<path d="M295.088 138.418C295.088 139.803 291.982 140.831 291.676 142.167C291.373 143.493 293.219 145.508 292.635 146.774C292.031 148.068 291.318 149.308 290.503 150.481C289.738 151.576 287.375 151.416 286.407 152.443C285.458 153.376 284.453 154.25 283.398 155.06C282.369 155.915 280.976 156.095 279.807 156.882C278.696 157.631 278.83 160.376 277.601 161.058C276.426 161.709 274.627 161.185 273.352 161.771C272.129 162.332 271.484 164.365 270.176 164.862C268.915 165.341 267.353 165.135 266.02 165.55C264.729 165.952 263.285 165.887 261.933 166.225C260.619 166.553 259.616 168.522 258.25 168.788C256.919 169.046 255.359 168.356 253.983 168.552C252.639 168.744 251.076 167.042 249.693 167.171C248.34 167.297 247.064 168.085 245.679 168.148C244.32 168.211 242.976 168.809 241.59 168.809C240.204 168.809 238.773 170.11 237.414 170.047C236.028 169.984 234.774 168.013 233.42 167.887C232.038 167.758 230.388 169.817 229.044 169.626C227.668 169.43 226.578 167.414 225.247 167.156C223.88 166.89 222.115 168.331 220.802 168.002C219.449 167.664 218.646 165.319 217.355 164.917C216.022 164.502 214.369 165.064 213.108 164.585C211.8 164.088 210.206 164.168 208.982 163.606C207.708 163.02 206.793 161.635 205.618 160.983C204.388 160.302 203.821 158.611 202.71 157.863C201.541 157.076 199.759 157.176 198.731 156.321C197.646 155.418 195.612 155.371 194.696 154.399C193.727 153.372 193.335 151.647 192.57 150.551C191.764 149.398 193.345 146.958 192.783 145.739C192.199 144.473 189.759 143.959 189.456 142.634C189.144 141.25 188.984 139.836 188.978 138.418C188.978 137.032 191.065 135.974 191.371 134.638C191.673 133.312 190.137 131.409 190.721 130.143C191.284 128.924 191.212 127.049 192.018 125.895C192.783 124.799 194.692 124.37 195.661 123.343C196.577 122.372 198.216 122.101 199.302 121.198C200.33 120.343 200.199 117.764 201.368 116.977C202.48 116.228 204.032 115.887 205.261 115.205C206.436 114.554 208.099 114.664 209.374 114.078C210.597 113.516 212.513 114.623 213.821 114.126C215.083 113.647 216.106 112.6 217.439 112.184C218.73 111.783 219.336 108.718 220.689 108.38C222.002 108.052 223.618 108.597 224.984 108.331C226.315 108.073 228.106 110.49 229.483 110.294C230.827 110.103 231.832 106.876 233.215 106.747C234.568 106.621 236.094 108.293 237.48 108.229C238.839 108.167 240.203 109.146 241.59 109.146C242.976 109.146 244.357 107.802 245.716 107.864C247.101 107.928 248.323 109.704 249.677 109.83C251.06 109.959 252.757 107.257 254.101 107.448C255.477 107.644 256.541 109.733 257.872 109.991C259.239 110.257 260.95 108.96 262.264 109.289C263.616 109.627 264.43 111.847 265.721 112.249C267.054 112.664 267.876 114.23 269.137 114.71C270.445 115.207 272.875 112.881 274.099 113.443C275.373 114.028 276.474 115.042 277.649 115.693C278.879 116.375 280.834 116.032 281.945 116.78C283.115 117.568 283.402 119.681 284.43 120.536C285.516 121.439 287.306 121.711 288.222 122.682C289.191 123.71 289.326 125.55 290.091 126.646C290.896 127.8 290.871 129.398 291.434 130.618C292.017 131.883 293.575 132.841 293.878 134.166C294.183 135.502 295.088 137.033 295.088 138.418Z" fill="#3F3D56"/>
<path d="M148.733 163.819C148.733 163.819 194.653 140.246 224.319 149.188C253.984 158.129 295.434 142.685 300.311 147.968C305.187 153.252 312.096 210.15 253.578 213.401C195.06 216.652 145.076 203.647 145.076 203.647L148.733 163.819Z" fill="#FBBEBE"/>
<path d="M137.919 161.308C137.919 161.308 156.048 160.161 155.235 166.663C154.422 173.166 153.61 223.562 148.733 224.781C143.857 226 105.251 226 89.4024 226H0V148.085C0 148.085 63.3944 144.311 95.0916 160.161C95.0916 160.161 133.2 159.611 137.919 161.308Z" fill="#5CB85C"/>
<path d="M222.848 39.4383C221.116 39.5361 219.445 40.1147 218.023 41.1089C216.601 42.1032 215.484 43.474 214.798 45.0675C212.785 49.9339 215.377 55.6501 219.267 59.1987C223.158 62.7473 228.156 64.7756 232.697 67.4417C238.797 71.0228 244.278 75.9939 247.33 82.375C250.382 88.7561 250.706 96.6605 247.119 102.757C243.789 108.415 237.735 111.801 231.96 114.925" stroke="#3F3D56" stroke-miterlimit="10"/>
<path d="M239.103 9.76999C237.371 9.86785 235.7 10.4463 234.278 11.4406C232.856 12.4349 231.739 13.8057 231.053 15.3992C229.04 20.2656 231.632 25.9818 235.522 29.5304C239.413 33.079 244.411 35.1073 248.952 37.7734C255.052 41.3545 260.533 46.3255 263.585 52.7067C266.637 59.0878 266.961 66.9922 263.374 73.0883C260.044 78.7466 253.99 82.1331 248.215 85.2563" stroke="#3F3D56" stroke-miterlimit="10"/>
<path d="M292.548 16.5935C291.118 15.6104 289.443 15.0449 287.71 14.9606C285.977 14.8762 284.255 15.2763 282.737 16.116C278.166 18.7315 276.717 24.8383 277.621 30.0264C278.526 35.2144 281.236 39.8783 283.195 44.7667C285.826 51.3326 287.117 58.6189 285.624 65.5331C284.131 72.4473 279.55 78.8962 272.981 81.5202C266.885 83.9558 260.025 82.9267 253.547 81.861" stroke="#3F3D56" stroke-miterlimit="10"/>
<path d="M245.45 77.9257C250.837 77.9257 255.203 75.8045 255.203 73.188C255.203 70.5715 250.837 68.4504 245.45 68.4504C240.064 68.4504 235.697 70.5715 235.697 73.188C235.697 75.8045 240.064 77.9257 245.45 77.9257Z" fill="#57B894"/>
<path d="M244.231 77.1129C249.618 77.1129 253.984 74.9917 253.984 72.3752C253.984 69.7587 249.618 67.6376 244.231 67.6376C238.845 67.6376 234.478 69.7587 234.478 72.3752C234.478 74.9917 238.845 77.1129 244.231 77.1129Z" stroke="#3F3D56" stroke-miterlimit="10"/>
<path d="M266.582 73.8615C271.968 73.8615 276.335 71.7404 276.335 69.1239C276.335 66.5073 271.968 64.3862 266.582 64.3862C261.195 64.3862 256.829 66.5073 256.829 69.1239C256.829 71.7404 261.195 73.8615 266.582 73.8615Z" fill="#57B894"/>
<path d="M265.363 73.0487C270.749 73.0487 275.116 70.9276 275.116 68.3111C275.116 65.6945 270.749 63.5734 265.363 63.5734C259.976 63.5734 255.61 65.6945 255.61 68.3111C255.61 70.9276 259.976 73.0487 265.363 73.0487Z" stroke="#3F3D56" stroke-miterlimit="10"/>
<path d="M269.833 91.7438C275.219 91.7438 279.586 89.6227 279.586 87.0061C279.586 84.3896 275.219 82.2685 269.833 82.2685C264.446 82.2685 260.08 84.3896 260.08 87.0061C260.08 89.6227 264.446 91.7438 269.833 91.7438Z" fill="#57B894"/>
<path d="M268.614 90.9309C274 90.9309 278.367 88.8098 278.367 86.1933C278.367 83.5768 274 81.4557 268.614 81.4557C263.227 81.4557 258.861 83.5768 258.861 86.1933C258.861 88.8098 263.227 90.9309 268.614 90.9309Z" stroke="#3F3D56" stroke-miterlimit="10"/>
<path d="M267.801 47.0382C273.187 47.0382 277.554 44.917 277.554 42.3005C277.554 39.684 273.187 37.5629 267.801 37.5629C262.414 37.5629 258.048 39.684 258.048 42.3005C258.048 44.917 262.414 47.0382 267.801 47.0382Z" fill="#57B894"/>
<path d="M266.582 46.2253C271.968 46.2253 276.335 44.1042 276.335 41.4877C276.335 38.8711 271.968 36.75 266.582 36.75C261.195 36.75 256.829 38.8711 256.829 41.4877C256.829 44.1042 261.195 46.2253 266.582 46.2253Z" stroke="#3F3D56" stroke-miterlimit="10"/>
<path d="M243.418 44.1932C248.805 44.1932 253.171 42.0721 253.171 39.4556C253.171 36.8391 248.805 34.718 243.418 34.718C238.032 34.718 233.665 36.8391 233.665 39.4556C233.665 42.0721 238.032 44.1932 243.418 44.1932Z" fill="#57B894"/>
<path d="M242.199 43.3804C247.586 43.3804 251.952 41.2593 251.952 38.6428C251.952 36.0262 247.586 33.9051 242.199 33.9051C236.813 33.9051 232.446 36.0262 232.446 38.6428C232.446 41.2593 236.813 43.3804 242.199 43.3804Z" stroke="#3F3D56" stroke-miterlimit="10"/>
<path d="M254.39 34.0329C259.777 34.0329 264.143 31.9117 264.143 29.2952C264.143 26.6787 259.777 24.5576 254.39 24.5576C249.004 24.5576 244.637 26.6787 244.637 29.2952C244.637 31.9117 249.004 34.0329 254.39 34.0329Z" fill="#57B894"/>
<path d="M253.171 33.22C258.558 33.22 262.924 31.0989 262.924 28.4824C262.924 25.8659 258.558 23.7448 253.171 23.7448C247.785 23.7448 243.418 25.8659 243.418 28.4824C243.418 31.0989 247.785 33.22 253.171 33.22Z" stroke="#3F3D56" stroke-miterlimit="10"/>
<path d="M278.367 36.0649C283.753 36.0649 288.12 33.9438 288.12 31.3273C288.12 28.7108 283.753 26.5897 278.367 26.5897C272.98 26.5897 268.614 28.7108 268.614 31.3273C268.614 33.9438 272.98 36.0649 278.367 36.0649Z" fill="#57B894"/>
<path d="M277.147 35.2521C282.534 35.2521 286.9 33.131 286.9 30.5145C286.9 27.8979 282.534 25.7768 277.147 25.7768C271.761 25.7768 267.394 27.8979 267.394 30.5145C267.394 33.131 271.761 35.2521 277.147 35.2521Z" stroke="#3F3D56" stroke-miterlimit="10"/>
<path d="M296.247 49.4766C301.633 49.4766 306 47.3555 306 44.739C306 42.1225 301.633 40.0013 296.247 40.0013C290.861 40.0013 286.494 42.1225 286.494 44.739C286.494 47.3555 290.861 49.4766 296.247 49.4766Z" fill="#57B894"/>
<path d="M295.028 48.6638C300.414 48.6638 304.781 46.5427 304.781 43.9261C304.781 41.3096 300.414 39.1885 295.028 39.1885C289.641 39.1885 285.275 41.3096 285.275 43.9261C285.275 46.5427 289.641 48.6638 295.028 48.6638Z" stroke="#3F3D56" stroke-miterlimit="10"/>
<path d="M233.259 25.9046C238.645 25.9046 243.012 23.7835 243.012 21.1669C243.012 18.5504 238.645 16.4293 233.259 16.4293C227.873 16.4293 223.506 18.5504 223.506 21.1669C223.506 23.7835 227.873 25.9046 233.259 25.9046Z" fill="#57B894"/>
<path d="M232.04 25.0917C237.426 25.0917 241.793 22.9706 241.793 20.3541C241.793 17.7376 237.426 15.6165 232.04 15.6165C226.653 15.6165 222.287 17.7376 222.287 20.3541C222.287 22.9706 226.653 25.0917 232.04 25.0917Z" stroke="#3F3D56" stroke-miterlimit="10"/>
<path d="M239.355 10.4608C244.741 10.4608 249.108 8.3397 249.108 5.72317C249.108 3.10665 244.741 0.985535 239.355 0.985535C233.968 0.985535 229.602 3.10665 229.602 5.72317C229.602 8.3397 233.968 10.4608 239.355 10.4608Z" fill="#57B894"/>
<path d="M238.135 9.64797C243.522 9.64797 247.888 7.52686 247.888 4.91034C247.888 2.29381 243.522 0.172699 238.135 0.172699C232.749 0.172699 228.382 2.29381 228.382 4.91034C228.382 7.52686 232.749 9.64797 238.135 9.64797Z" stroke="#3F3D56" stroke-miterlimit="10"/>
<path d="M295.841 21.8404C301.227 21.8404 305.594 19.7193 305.594 17.1028C305.594 14.4863 301.227 12.3651 295.841 12.3651C290.454 12.3651 286.088 14.4863 286.088 17.1028C286.088 19.7193 290.454 21.8404 295.841 21.8404Z" fill="#57B894"/>
<path d="M294.622 21.0276C300.008 21.0276 304.375 18.9065 304.375 16.2899C304.375 13.6734 300.008 11.5523 294.622 11.5523C289.235 11.5523 284.869 13.6734 284.869 16.2899C284.869 18.9065 289.235 21.0276 294.622 21.0276Z" stroke="#3F3D56" stroke-miterlimit="10"/>
<path d="M206.032 59.2306C211.418 59.2306 215.785 57.1095 215.785 54.4929C215.785 51.8764 211.418 49.7553 206.032 49.7553C200.645 49.7553 196.279 51.8764 196.279 54.4929C196.279 57.1095 200.645 59.2306 206.032 59.2306Z" fill="#57B894"/>
<path d="M204.813 58.4177C210.199 58.4177 214.566 56.2966 214.566 53.6801C214.566 51.0636 210.199 48.9425 204.813 48.9425C199.426 48.9425 195.06 51.0636 195.06 53.6801C195.06 56.2966 199.426 58.4177 204.813 58.4177Z" stroke="#3F3D56" stroke-miterlimit="10"/>
<path d="M239.761 56.7921C245.147 56.7921 249.514 54.671 249.514 52.0545C249.514 49.4379 245.147 47.3168 239.761 47.3168C234.375 47.3168 230.008 49.4379 230.008 52.0545C230.008 54.671 234.375 56.7921 239.761 56.7921Z" fill="#57B894"/>
<path d="M238.542 55.9793C243.928 55.9793 248.295 53.8582 248.295 51.2416C248.295 48.6251 243.928 46.504 238.542 46.504C233.155 46.504 228.789 48.6251 228.789 51.2416C228.789 53.8582 233.155 55.9793 238.542 55.9793Z" stroke="#3F3D56" stroke-miterlimit="10"/>
<path d="M284.056 60.4498C289.442 60.4498 293.809 58.3287 293.809 55.7122C293.809 53.0957 289.442 50.9745 284.056 50.9745C278.669 50.9745 274.303 53.0957 274.303 55.7122C274.303 58.3287 278.669 60.4498 284.056 60.4498Z" fill="#57B894"/>
<path d="M282.837 59.637C288.223 59.637 292.59 57.5159 292.59 54.8994C292.59 52.2829 288.223 50.1617 282.837 50.1617C277.45 50.1617 273.084 52.2829 273.084 54.8994C273.084 57.5159 277.45 59.637 282.837 59.637Z" stroke="#3F3D56" stroke-miterlimit="10"/>
<path d="M260.486 62.0755C265.872 62.0755 270.239 59.9544 270.239 57.3379C270.239 54.7213 265.872 52.6002 260.486 52.6002C255.1 52.6002 250.733 54.7213 250.733 57.3379C250.733 59.9544 255.1 62.0755 260.486 62.0755Z" fill="#57B894"/>
<path d="M259.267 61.2627C264.653 61.2627 269.02 59.1415 269.02 56.525C269.02 53.9085 264.653 51.7874 259.267 51.7874C253.881 51.7874 249.514 53.9085 249.514 56.525C249.514 59.1415 253.881 61.2627 259.267 61.2627Z" stroke="#3F3D56" stroke-miterlimit="10"/>
<path d="M262.112 21.434C267.498 21.434 271.865 19.3129 271.865 16.6964C271.865 14.0799 267.498 11.9587 262.112 11.9587C256.725 11.9587 252.359 14.0799 252.359 16.6964C252.359 19.3129 256.725 21.434 262.112 21.434Z" fill="#57B894"/>
<path d="M260.892 20.6212C266.279 20.6212 270.645 18.5001 270.645 15.8835C270.645 13.267 266.279 11.1459 260.892 11.1459C255.506 11.1459 251.139 13.267 251.139 15.8835C251.139 18.5001 255.506 20.6212 260.892 20.6212Z" stroke="#3F3D56" stroke-miterlimit="10"/>
<path d="M220.255 46.6317C225.641 46.6317 230.008 44.5106 230.008 41.8941C230.008 39.2776 225.641 37.1565 220.255 37.1565C214.869 37.1565 210.502 39.2776 210.502 41.8941C210.502 44.5106 214.869 46.6317 220.255 46.6317Z" fill="#57B894"/>
<path d="M219.036 45.8189C224.422 45.8189 228.789 43.6978 228.789 41.0813C228.789 38.4647 224.422 36.3436 219.036 36.3436C213.649 36.3436 209.283 38.4647 209.283 41.0813C209.283 43.6978 213.649 45.8189 219.036 45.8189Z" stroke="#3F3D56" stroke-miterlimit="10"/>
<path d="M225.944 64.9204C231.331 64.9204 235.697 62.7993 235.697 60.1828C235.697 57.5662 231.331 55.4451 225.944 55.4451C220.558 55.4451 216.191 57.5662 216.191 60.1828C216.191 62.7993 220.558 64.9204 225.944 64.9204Z" fill="#57B894"/>
<path d="M224.725 64.1076C230.112 64.1076 234.478 61.9864 234.478 59.3699C234.478 56.7534 230.112 54.6323 224.725 54.6323C219.339 54.6323 214.972 56.7534 214.972 59.3699C214.972 61.9864 219.339 64.1076 224.725 64.1076Z" stroke="#3F3D56" stroke-miterlimit="10"/>
<g opacity="0.3">
<path opacity="0.3" d="M226.171 92.5314C227.548 90.0679 227.799 87.5875 226.732 86.9912C225.666 86.3949 223.685 87.9086 222.308 90.3722C220.931 92.8357 220.68 95.3162 221.747 95.9124C222.814 96.5087 224.794 94.995 226.171 92.5314Z" fill="#57B894"/>
<path opacity="0.3" d="M225.528 92.9038C226.905 90.4402 227.156 87.9598 226.089 87.3635C225.023 86.7673 223.042 88.281 221.665 90.7445C220.288 93.208 220.037 95.6885 221.104 96.2848C222.171 96.881 224.151 95.3673 225.528 92.9038Z" stroke="#3F3D56" stroke-miterlimit="10"/>
</g>
<g opacity="0.3">
<path opacity="0.3" d="M277.008 104.341C277.823 103.431 276.779 101.167 274.676 99.2845C272.574 97.4024 270.208 96.615 269.393 97.5257C268.578 98.4364 269.622 100.7 271.725 102.583C273.828 104.465 276.193 105.252 277.008 104.341Z" fill="#57B894"/>
<path opacity="0.3" d="M276.785 103.632C277.6 102.722 276.556 100.458 274.454 98.5756C272.351 96.6935 269.986 95.9061 269.171 96.8168C268.356 97.7275 269.4 99.9915 271.502 101.874C273.605 103.756 275.97 104.543 276.785 103.632Z" stroke="#3F3D56" stroke-miterlimit="10"/>
</g>
<g opacity="0.3">
<path opacity="0.3" d="M231.494 78.7373C232.309 77.8266 231.265 75.5625 229.162 73.6804C227.06 71.7983 224.694 71.0109 223.879 71.9216C223.064 72.8323 224.108 75.0963 226.211 76.9784C228.314 78.8605 230.679 79.648 231.494 78.7373Z" fill="#57B894"/>
<path opacity="0.3" d="M231.271 78.0284C232.086 77.1177 231.042 74.8537 228.94 72.9716C226.837 71.0895 224.472 70.302 223.657 71.2127C222.842 72.1234 223.886 74.3875 225.988 76.2696C228.091 78.1517 230.456 78.9391 231.271 78.0284Z" stroke="#3F3D56" stroke-miterlimit="10"/>
</g>
</g>
<defs>
<clipPath id="clip0_4_2">
<rect width="306" height="226" fill="white"/>
</clipPath>
</defs>
</svg>
