<svg width="128" height="179" viewBox="0 0 128 179" fill="none" xmlns="http://www.w3.org/2000/svg">
<path d="M51.47 37.93C25.35 37.24 -5.38 8.76 5.01 39.2C10.99 56.7 31.21 65.23 51.47 64.97C71.73 65.23 91.95 56.71 97.93 39.2C108.32 8.76 77.59 37.24 51.47 37.93V37.93Z" fill="#E59600"/>
<path d="M86.54 80.78C85.5 78.8 86.34 76.84 89.61 73.52C93.67 69.41 99.02 58.73 93.71 47.96C93.71 47.96 92.87 46.34 92.88 46.3L92.13 47.13C91.98 46.83 91.82 46.52 91.64 46.22C90.49 46.06 12.65 46.06 11.5 46.22C11.18 46.78 10.9 47.34 10.64 47.9L9.65 47.82C4.75 59.66 9.2 69.05 13.52 73.51C16.24 76.32 17.7 78.52 16.58 80.82C16.02 81.97 15.15 82.64 13.91 82.89L11.76 83.31L12.93 85.12C13.35 85.78 13.93 86.33 14.6 86.72C16.47 87.81 18.73 88.08 20.31 88.12C20.49 88.12 20.75 88.32 21.14 88.74C26.22 94.27 30.22 96.03 42.56 96.48L60.41 96.49C72.89 96.05 76.9 94.3 82 88.75C82.39 88.32 82.65 88.13 82.83 88.13C84.41 88.09 86.68 87.82 88.54 86.73C89.21 86.34 89.78 85.79 90.21 85.13L91.38 83.32L89.23 82.9C88.04 82.65 87.16 81.96 86.54 80.78V80.78Z" fill="#543930"/>
<path d="M52.3 96.39L52.25 87.06L80.46 84.69L82.48 88.22C82.48 88.22 78.5 92.98 74.05 94.47C70.74 95.58 67.12 96.31 60.19 96.49L52.3 96.39V96.39Z" fill="url(#paint0_radial_3_3)"/>
<path d="M50.64 96.39L50.69 87.12L22.66 84.76L20.65 88.27C20.65 88.27 24.6 93 29.03 94.48C32.32 95.58 35.92 96.31 42.8 96.49L50.64 96.39V96.39Z" fill="url(#paint1_radial_3_3)"/>
<path d="M51.72 90.68H42.8V101.36C42.8 106.19 46.43 110.1 50.91 110.1H52.53C57.01 110.1 60.64 106.18 60.64 101.36V90.68H51.72V90.68Z" fill="#E59600"/>
<path d="M91.03 71.78C89.42 73.93 86.76 76.36 86.46 78.25C89.44 62.09 76.43 64.01 73.74 56.63C73.2 55.14 72.7 53.61 72.64 52.02C72.59 50.83 79.95 39.57 80.64 38.56C81.48 37.32 93.57 47.51 93.57 47.51C93.56 47.53 100.38 59.29 91.03 71.78V71.78Z" fill="url(#paint2_radial_3_3)"/>
<path d="M80.18 84.32C73.07 73.97 90.85 71.99 90.85 71.99C88.52 74.27 85.42 78.09 86.49 80.53C87.76 83.41 91.43 83.18 91.43 83.18C91.43 83.18 85 89.06 80.18 84.32Z" fill="url(#paint3_radial_3_3)"/>
<path d="M78.31 51.78H24.63C18.84 51.78 14.11 56.82 14.11 62.99C14.11 69.16 18.84 74.2 24.63 74.2H78.32C84.11 74.2 88.84 69.16 88.84 62.99C88.84 56.82 84.1 51.78 78.31 51.78Z" fill="#E59600"/>
<path d="M51.47 13.11C34.37 13.11 18.54 31.39 18.54 57.7C18.54 83.87 34.85 96.8 51.47 96.8C68.09 96.8 84.4 83.87 84.4 57.7C84.4 31.39 68.57 13.11 51.47 13.11V13.11Z" fill="#FFCA28"/>
<path d="M36.17 65.02C38.8431 65.02 41.01 62.7769 41.01 60.01C41.01 57.2431 38.8431 55 36.17 55C33.4969 55 31.33 57.2431 31.33 60.01C31.33 62.7769 33.4969 65.02 36.17 65.02Z" fill="#404040"/>
<path d="M66.77 65.02C69.4431 65.02 71.61 62.7769 71.61 60.01C71.61 57.2431 69.4431 55 66.77 55C64.0969 55 61.93 57.2431 61.93 60.01C61.93 62.7769 64.0969 65.02 66.77 65.02Z" fill="#404040"/>
<path d="M59.85 77.04C56.72 78.9 46.46 78.9 43.33 77.04C41.53 75.97 39.7 77.61 40.44 79.24C41.17 80.85 46.77 84.57 51.61 84.57C56.45 84.57 61.97 80.85 62.71 79.24C63.46 77.6 61.65 75.97 59.85 77.04Z" fill="#795548"/>
<path d="M43.36 51.13C42.45 49.92 40.34 48.17 36.26 48.17C32.18 48.17 30.07 49.92 29.16 51.13C28.76 51.66 28.86 52.28 29.14 52.65C29.4 53 30.16 53.32 31.01 53.03C31.86 52.74 33.5 51.89 36.27 51.87C39.03 51.89 40.68 52.74 41.53 53.03C42.38 53.32 43.14 53 43.4 52.65C43.66 52.28 43.76 51.66 43.36 51.13V51.13Z" fill="#6D4C41"/>
<path d="M73.79 51.13C72.88 49.92 70.77 48.17 66.69 48.17C62.61 48.17 60.5 49.92 59.59 51.13C59.19 51.66 59.29 52.28 59.57 52.65C59.83 53 60.59 53.32 61.44 53.03C62.29 52.74 63.93 51.89 66.7 51.87C69.46 51.89 71.11 52.74 71.96 53.03C72.81 53.32 73.57 53 73.83 52.65C74.09 52.28 74.19 51.66 73.79 51.13Z" fill="#6D4C41"/>
<path d="M55.26 69.09C55.16 69.05 55.05 69.02 54.94 69.01H48C47.89 69.02 47.79 69.05 47.68 69.09C47.05 69.35 46.7 70 47 70.69C47.3 71.38 48.68 73.33 51.47 73.33C54.26 73.33 55.64 71.38 55.94 70.69C56.24 70 55.89 69.35 55.26 69.09Z" fill="#E59600"/>
<path d="M12.16 71.94C13.77 74.07 16.41 76.49 16.7 78.37C13.74 62.32 26.67 64.22 29.34 56.89C29.88 55.41 30.37 53.89 30.44 52.31C30.49 51.13 23.17 39.94 22.5 38.94C21.67 37.71 9.65 47.84 9.65 47.84C9.65 47.84 3.4 60.38 12.16 71.94Z" fill="url(#paint4_radial_3_3)"/>
<path d="M22.94 84.4C30 74.12 12.34 72.15 12.34 72.15C14.66 74.42 17.74 78.22 16.67 80.63C15.41 83.49 11.76 83.26 11.76 83.26C11.76 83.26 18.15 89.11 22.94 84.4Z" fill="url(#paint5_radial_3_3)"/>
<path d="M90.86 28.86C90.7 28.62 90.52 28.36 90.33 28.11C89.98 28.17 89.59 28.24 89.21 28.3C88.83 27.58 88.49 27.01 88.24 26.64C88.18 26.56 83.41 27.46 76.32 28.38H24.58C18.57 27.57 14.56 26.77 14.24 26.64C14.04 27.24 13.89 27.82 13.78 28.38H12.76C11.34 32.39 12.19 33.3 12.79 34.99C10.31 37.09 6.95 41.66 9.34 47.37C11.75 53.15 17.37 53.75 17.37 53.75C16.76 64.3 20.09 69.42 20.09 69.42C20.09 69.42 24.22 51.3 23.84 48.53C23.84 48.53 31.46 47.02 40.11 42.07C45.96 38.72 49.95 34.8 56.52 33.32C66.52 31.07 68.75 38.31 68.75 38.31C68.75 38.31 78 36.53 80.8 49.38C81.95 54.67 82.44 63.5 83.07 68.87C83.02 68.4 86.51 62.59 87.12 56.69C87.29 55.05 89.19 51.65 90.55 48.37C91.12 49.44 91.77 50.73 91.96 51.38C91.96 51.38 93.06 46.92 93.14 46.61C95.34 37.83 92.59 31.48 90.86 28.86Z" fill="#543930"/>
<path d="M12.56 35.13C10.19 37.25 7 41.97 9.35 47.81C11.12 52.22 17.44 54.14 17.44 54.14C17.44 54.16 18.7 54.54 19.35 54.54L20.83 32.52C17.8 32.52 14.89 33.43 13.01 34.75C13.03 34.78 12.55 35.1 12.56 35.13V35.13Z" fill="url(#paint6_radial_3_3)"/>
<path d="M86.75 57.5C86.91 55.95 91.09 53.9 92.89 47.24C93.08 46.53 93.24 45.81 93.39 45.09C94.85 37 92.23 29.57 90.6 27.11C88.34 23.7 78.84 30.48 80.46 33.19C85.52 41.66 85.36 49.38 86.75 57.5Z" fill="url(#paint7_radial_3_3)"/>
<path d="M95.73 120.81C95.73 103.02 70.17 98.92 61.07 98.03L53.4 108.57H50.07L42.52 98.01C32.67 98.94 24.29 101.28 18.24 104.79C11.26 108.84 7.73 114.23 7.73 120.8V124H95.75V120.81H95.73Z" fill="url(#paint8_linear_3_3)"/>
<path d="M83.64 120.08L76.47 114.56L76.72 114.17L50.73 114.66L26.86 114.17L27.11 114.56L19.94 120.08L19.77 124H83.81L83.64 120.08Z" fill="url(#paint9_linear_3_3)"/>
<path d="M33.78 107.13L33.67 99.31C33.67 99.31 27.88 100.51 25.8 101.41L22.88 108.01L26.66 113.87L33.78 107.13Z" fill="url(#paint10_linear_3_3)"/>
<path d="M69.8 107.13L69.91 99.31C69.91 99.31 75.7 100.51 77.78 101.41L80.7 108.01L76.91 113.87L69.8 107.13Z" fill="url(#paint11_linear_3_3)"/>
<path d="M72.97 115.61L78.14 116.59C78.8041 116.713 79.4899 116.569 80.048 116.189C80.6062 115.808 80.9915 115.223 81.12 114.56C81.2431 113.896 81.0989 113.21 80.7187 112.652C80.3384 112.094 79.753 111.709 79.09 111.58L73.92 110.6C73.256 110.477 72.5701 110.621 72.012 111.001C71.4538 111.382 71.0685 111.967 70.94 112.63C70.68 114.02 71.58 115.35 72.97 115.61Z" fill="#BDBDBD"/>
<path d="M30.61 115.61L25.44 116.59C24.06 116.85 22.72 115.94 22.46 114.56C22.3369 113.896 22.4811 113.21 22.8614 112.652C23.2416 112.094 23.827 111.709 24.49 111.58L29.66 110.6C30.3241 110.477 31.0099 110.621 31.568 111.001C32.1262 111.382 32.5115 111.967 32.64 112.63C32.9 114.02 32 115.35 30.61 115.61V115.61Z" fill="#BDBDBD"/>
<path d="M42.38 98.03C39.77 98.28 37.27 98.64 34.88 99.08L34.63 120.03L51.72 108.5L42.38 98.03V98.03Z" fill="url(#paint12_linear_3_3)"/>
<path d="M68.56 99.11C65.6 98.55 62.97 98.22 61.07 98.03L51.73 108.51L68.82 120.04L68.56 99.11V99.11Z" fill="url(#paint13_linear_3_3)"/>
<path d="M77.49 29.04C72.67 17.05 67.93 7.59 61.86 6.86C60.24 6.67 56 6.13 51.71 6.12C47.26 6.12 42.76 6.66 41.09 6.86C35.02 7.59 30.28 17.05 25.45 29.03C22.83 35.53 80.11 35.53 77.49 29.04V29.04Z" fill="url(#paint14_linear_3_3)"/>
<path d="M91.57 24.72C82.14 26.43 66.39 28.42 52.04 28.48H50.9C36.55 28.42 20.8 26.43 11.37 24.72C3.23 23.24 2.94 28.56 2.94 28.56C2.94 28.56 5.52 25.37 10.05 29.79C17.08 36.65 28.53 47.54 50.82 47.63C51.04 47.63 51.25 47.62 51.47 47.62C51.69 47.62 51.9 47.63 52.12 47.63C74.42 47.53 85.86 36.65 92.89 29.79C97.42 25.37 100 28.56 100 28.56C100 28.56 99.71 23.24 91.57 24.72V24.72Z" fill="url(#paint15_linear_3_3)"/>
<path d="M51.47 20.37C36.29 20.37 26.42 26.92 26.42 26.92C26.42 26.92 40.79 28.39 51.47 28.39C62.15 28.39 76.52 26.92 76.52 26.92C76.52 26.92 66.65 20.37 51.47 20.37Z" fill="#78909C"/>
<path d="M107.48 109.01V124" stroke="#D18100" stroke-width="5" stroke-miterlimit="10"/>
<path d="M108.64 116.76H106.32C104.93 116.76 103.81 116.76 103.81 114.25V102.24H111.14V114.25C111.15 116.38 110.02 116.76 108.64 116.76Z" fill="#636363"/>
<path d="M116.73 99.5C114.89 99.5 108.99 99.56 107.66 99.56C105.54 99.56 99.92 99.37 97.63 99.37C90.15 99.37 90.09 72.68 90.09 72.68V97.39C90.09 104.08 93.51 106.22 99.51 106.44H114.89C120.31 106.44 122.24 102.73 122.24 98.29L121.86 93.43C121.84 93.44 120.39 99.5 116.73 99.5V99.5Z" fill="#616161"/>
<path d="M123.37 38.4C123.26 37.98 122.64 37.99 122.54 38.41L121.39 43.09L119.39 95.27C119.39 95.27 119.38 95.54 119.38 95.68C119.38 97.22 118.19 98.32 116.65 98.32C115.11 98.32 113.84 97.2 113.84 95.66C113.84 95.44 114.44 43.28 114.44 43.28L113.25 38.15C113.14 37.73 112.53 37.73 112.42 38.14L111.07 43.19L110.45 95.34C110.45 97.04 109.42 98.33 107.72 98.33C106.02 98.33 104.64 96.95 104.64 95.25L104.34 43.08L103.16 38.14C103.05 37.73 102.45 37.73 102.33 38.14L100.83 43.29L100.86 95.15C100.86 96.91 99.64 98.34 97.88 98.34C95.92 98.34 94.48 96.91 94.48 95.15L92.44 43.09L91.1 38.12C90.99 37.7 90.5 37.78 90.38 38.19L89.01 43.19L90.61 96.82C90.61 101.34 93.49 104.76 99.49 104.99H114.87C120.29 104.99 122.37 101.26 122.37 96.82L124.53 43.42L123.37 38.4V38.4Z" fill="url(#paint16_linear_3_3)"/>
<g filter="url(#filter0_d_3_3)">
<path d="M19.69 170.36C18.406 170.36 17.146 170.198 15.91 169.874C14.674 169.55 13.54 169.064 12.508 168.416C11.488 167.768 10.648 166.958 9.988 165.986C9.328 165.014 8.932 163.874 8.8 162.566H14.182C14.446 163.742 15.07 164.648 16.054 165.284C17.05 165.92 18.256 166.238 19.672 166.238C21.1 166.238 22.33 165.968 23.362 165.428C24.406 164.888 24.928 164.066 24.928 162.962C24.928 161.978 24.508 161.246 23.668 160.766C22.828 160.286 21.778 159.92 20.518 159.668L16.018 158.75C14.05 158.378 12.49 157.598 11.338 156.41C10.186 155.222 9.592 153.626 9.556 151.622C9.544 149.99 9.976 148.58 10.852 147.392C11.74 146.192 12.94 145.268 14.452 144.62C15.976 143.972 17.68 143.648 19.564 143.648C21.808 143.648 23.692 144.002 25.216 144.71C26.752 145.406 27.916 146.354 28.708 147.554C29.512 148.742 29.926 150.068 29.95 151.532H24.676C24.532 150.164 23.998 149.204 23.074 148.652C22.15 148.1 21.01 147.824 19.654 147.824C18.25 147.824 17.134 148.124 16.306 148.724C15.478 149.312 15.064 150.074 15.064 151.01C15.064 151.766 15.31 152.378 15.802 152.846C16.306 153.314 17.254 153.698 18.646 153.998L23.11 154.916C24.694 155.228 25.96 155.69 26.908 156.302C27.856 156.914 28.564 157.604 29.032 158.372C29.512 159.14 29.824 159.926 29.968 160.73C30.124 161.522 30.202 162.254 30.202 162.926C30.202 164.33 29.764 165.596 28.888 166.724C28.012 167.84 26.782 168.728 25.198 169.388C23.626 170.036 21.79 170.36 19.69 170.36ZM34.8066 143.972H40.0446V170H34.8066V143.972ZM62.5128 158.822H51.1188V170H45.8808V143.972H51.1188V154.412H62.5128V143.972H67.7688V170H62.5128V158.822ZM71.658 170L80.982 143.972H86.526L95.832 170H90.594L88.47 163.97H79.11L76.932 170H71.658ZM80.28 159.38H87.21L83.772 149.048L80.28 159.38ZM116.822 143.972H122.078V170H117.344L104.978 152.09V170H99.7402V143.972H104.942L116.822 161.198V143.972Z" fill="#5CB85C"/>
</g>
<defs>
<filter id="filter0_d_3_3" x="4.8" y="143.648" width="121.278" height="34.712" filterUnits="userSpaceOnUse" color-interpolation-filters="sRGB">
<feFlood flood-opacity="0" result="BackgroundImageFix"/>
<feColorMatrix in="SourceAlpha" type="matrix" values="0 0 0 0 0 0 0 0 0 0 0 0 0 0 0 0 0 0 127 0" result="hardAlpha"/>
<feOffset dy="4"/>
<feGaussianBlur stdDeviation="2"/>
<feComposite in2="hardAlpha" operator="out"/>
<feColorMatrix type="matrix" values="0 0 0 0 0 0 0 0 0 0 0 0 0 0 0 0 0 0 0.25 0"/>
<feBlend mode="normal" in2="BackgroundImageFix" result="effect1_dropShadow_3_3"/>
<feBlend mode="normal" in="SourceGraphic" in2="effect1_dropShadow_3_3" result="shape"/>
</filter>
<radialGradient id="paint0_radial_3_3" cx="0" cy="0" r="1" gradientUnits="userSpaceOnUse" gradientTransform="translate(72.1963 82.9399) rotate(-15.0647) scale(22.9862 11.291)">
<stop offset="0.728" stop-color="#6D4C41" stop-opacity="0"/>
<stop offset="1" stop-color="#6D4C41"/>
</radialGradient>
<radialGradient id="paint1_radial_3_3" cx="0" cy="0" r="1" gradientUnits="userSpaceOnUse" gradientTransform="translate(30.8719 83.0245) rotate(-164.935) scale(22.8412 11.2198)">
<stop offset="0.728" stop-color="#6D4C41" stop-opacity="0"/>
<stop offset="1" stop-color="#6D4C41"/>
</radialGradient>
<radialGradient id="paint2_radial_3_3" cx="0" cy="0" r="1" gradientUnits="userSpaceOnUse" gradientTransform="translate(74.7967 66.3138) rotate(-94.2783) scale(26.4066 22.0082)">
<stop offset="0.725" stop-color="#6D4C41" stop-opacity="0"/>
<stop offset="1" stop-color="#6D4C41"/>
</radialGradient>
<radialGradient id="paint3_radial_3_3" cx="0" cy="0" r="1" gradientUnits="userSpaceOnUse" gradientTransform="translate(90.2046 78.6848) rotate(160.397) scale(9.17717 6.88964)">
<stop offset="0.663" stop-color="#6D4C41"/>
<stop offset="1" stop-color="#6D4C41" stop-opacity="0"/>
</radialGradient>
<radialGradient id="paint4_radial_3_3" cx="0" cy="0" r="1" gradientUnits="userSpaceOnUse" gradientTransform="translate(28.3084 66.5041) rotate(-85.7217) scale(26.2326 21.8632)">
<stop offset="0.725" stop-color="#6D4C41" stop-opacity="0"/>
<stop offset="1" stop-color="#6D4C41"/>
</radialGradient>
<radialGradient id="paint5_radial_3_3" cx="0" cy="0" r="1" gradientUnits="userSpaceOnUse" gradientTransform="translate(12.9767 78.797) rotate(19.6034) scale(9.11907 6.84602)">
<stop offset="0.663" stop-color="#6D4C41"/>
<stop offset="1" stop-color="#6D4C41" stop-opacity="0"/>
</radialGradient>
<radialGradient id="paint6_radial_3_3" cx="0" cy="0" r="1" gradientUnits="userSpaceOnUse" gradientTransform="translate(26.7224 45.0054) rotate(7.87895) scale(16.8884 23.8655)">
<stop offset="0.598" stop-color="#6D4C41" stop-opacity="0"/>
<stop offset="1" stop-color="#6D4C41"/>
</radialGradient>
<radialGradient id="paint7_radial_3_3" cx="0" cy="0" r="1" gradientUnits="userSpaceOnUse" gradientTransform="translate(76.7346 47.5748) rotate(72.0851) scale(24.9906 18.5424)">
<stop offset="0.699" stop-color="#6D4C41" stop-opacity="0"/>
<stop offset="1" stop-color="#6D4C41"/>
</radialGradient>
<linearGradient id="paint8_linear_3_3" x1="51.72" y1="124" x2="51.72" y2="98.018" gradientUnits="userSpaceOnUse">
<stop stop-color="#709E3B"/>
<stop offset="0.328" stop-color="#73A13E"/>
<stop offset="0.595" stop-color="#7DAB47"/>
<stop offset="0.839" stop-color="#8DBC57"/>
<stop offset="1" stop-color="#9CCC65"/>
</linearGradient>
<linearGradient id="paint9_linear_3_3" x1="51.791" y1="124.518" x2="51.791" y2="99.926" gradientUnits="userSpaceOnUse">
<stop stop-color="#1E88E5"/>
<stop offset="1" stop-color="#1565C0"/>
</linearGradient>
<linearGradient id="paint10_linear_3_3" x1="28.334" y1="123.992" x2="28.334" y2="100.615" gradientUnits="userSpaceOnUse">
<stop stop-color="#1E88E5"/>
<stop offset="1" stop-color="#1565C0"/>
</linearGradient>
<linearGradient id="paint11_linear_3_3" x1="75.247" y1="123.992" x2="75.247" y2="100.615" gradientUnits="userSpaceOnUse">
<stop stop-color="#1E88E5"/>
<stop offset="1" stop-color="#1565C0"/>
</linearGradient>
<linearGradient id="paint12_linear_3_3" x1="43.175" y1="100.269" x2="43.175" y2="115.046" gradientUnits="userSpaceOnUse">
<stop stop-color="#AED581"/>
<stop offset="1" stop-color="#8BC34A"/>
</linearGradient>
<linearGradient id="paint13_linear_3_3" x1="60.265" y1="98.088" x2="60.265" y2="115.522" gradientUnits="userSpaceOnUse">
<stop stop-color="#AED581"/>
<stop offset="1" stop-color="#8BC34A"/>
</linearGradient>
<linearGradient id="paint14_linear_3_3" x1="51.471" y1="7.574" x2="51.471" y2="31.359" gradientUnits="userSpaceOnUse">
<stop offset="0.003" stop-color="#FFF59D"/>
<stop offset="0.553" stop-color="#FEE565"/>
<stop offset="0.996" stop-color="#FDD835"/>
</linearGradient>
<linearGradient id="paint15_linear_3_3" x1="51.47" y1="26.547" x2="51.47" y2="55.575" gradientUnits="userSpaceOnUse">
<stop offset="0.003" stop-color="#FFF59D"/>
<stop offset="0.553" stop-color="#FEE565"/>
<stop offset="0.996" stop-color="#FDD835"/>
</linearGradient>
<linearGradient id="paint16_linear_3_3" x1="106.778" y1="108.468" x2="106.778" y2="49.798" gradientUnits="userSpaceOnUse">
<stop stop-color="#757575"/>
<stop offset="0.482" stop-color="#9E9E9E"/>
</linearGradient>
</defs>
</svg>
