<svg width="25" height="25" viewBox="0 0 25 25" fill="none" xmlns="http://www.w3.org/2000/svg">
<path d="M11.4885 2.6458C11.798 2.47396 12.1461 2.38379 12.5 2.38379C12.8539 2.38379 13.202 2.47396 13.5115 2.6458L21.3396 6.99371C21.5019 7.08396 21.6371 7.21596 21.7312 7.37603C21.8254 7.5361 21.875 7.71843 21.875 7.90413V16.4823C21.8749 16.8538 21.7755 17.2185 21.587 17.5386C21.3986 17.8588 21.1279 18.1227 20.8031 18.3031L13.5115 22.3552C13.202 22.527 12.8539 22.6172 12.5 22.6172C12.1461 22.6172 11.798 22.527 11.4885 22.3552L4.19687 18.3031C3.87225 18.1228 3.6017 17.859 3.41324 17.5391C3.22479 17.2191 3.12527 16.8546 3.125 16.4833V7.90413C3.12499 7.71843 3.17463 7.5361 3.26877 7.37603C3.3629 7.21596 3.49812 7.08396 3.66042 6.99371L11.4896 2.6458H11.4885Z" stroke="white" stroke-width="2" stroke-linecap="round" stroke-linejoin="round"/>
<path d="M7.8125 4.6875L17.1875 9.89583V13.5417" stroke="white" stroke-width="2" stroke-linecap="round" stroke-linejoin="round"/>
<path d="M6.25 12.8416L9.375 14.5832" stroke="white" stroke-width="2" stroke-linecap="round" stroke-linejoin="round"/>
<path d="M12.5 12.4998V22.3957M3.125 7.2915L12.5 12.4998L3.125 7.2915ZM12.5 12.4998L21.875 7.2915L12.5 12.4998Z" stroke="white" stroke-width="2" stroke-linejoin="round"/>
</svg>
